{"title":"War [2007] BRrip Hindi Dubbed MKV [Team_BDU]","uid":5767669,"size":611244439,"categoryP":"video","categoryS":"hd___movies","magnet":"?xt=urn:btih:91acd191f642b5b0590f4d0aa7d309244f1e6245&amp;dn=War+%5B2007%5D+BRrip+Hindi+Dubbed+MKV+%5BTeam_BDU%5D&amp;tr=udp%3A%2F%2Ftracker.openbittorrent.com%3A80&amp;tr=udp%3A%2F%2Fopen.demonii.com%3A1337&amp;tr=udp%3A%2F%2Ftracker.coppersurfer.tk%3A6969&amp;tr=udp%3A%2F%2Fexodus.desync.com%3A6969","seeders":0,"leechers":0,"uploader":"Team_BDU","files":-1,"time":1281974571,"description":"General\nComplete name                    : War [2007] BRrip by Arihant !!!Team TDT &amp; SDR!!!.mkv\nFormat                           : Matroska\nFile size                        : 573 MiB\nDuration                         : 1h 38mn\nOverall bit rate                 : 811 Kbps\n\n\nVideo\nID                               : 1\nFormat                           : AVC\nFormat/Info                      : Advanced Video Codec\nFormat profile                   : &lt;a class=&quot;__cf_email__&quot; href=&quot;/cdn-cgi/l/email-protection&quot; data-cfemail=&quot;6129080609212d524f51&quot;&gt;[email&amp;#160;protected]&lt;/a&gt;&lt;script data-cfhash='f9e31' type=&quot;text/javascript&quot;&gt;\n/* &lt;![CDATA[ */!function(){try{var t=&quot;currentScript&quot;in document?document.currentScript:function(){for(var t=document.getElementsByTagName(&quot;script&quot;),e=t.length;e--;)if(t[e].getAttribute(&quot;data-cfhash&quot;))return t[e]}();if(t&amp;&amp;t.previousSibling){var e,r,n,i,c=t.previousSibling,a=c.getAttribute(&quot;data-cfemail&quot;);if(a){for(e=&quot;&quot;,r=parseInt(a.substr(0,2),16),n=2;a.length-n;n+=2)i=parseInt(a.substr(n,2),16)^r,e+=String.fromCharCode(i);e=document.createTextNode(e),c.parentNode.replaceChild(e,c)}t.parentNode.removeChild(t);}}catch(u){}}()/* ]]&gt; */&lt;/script&gt;\nFormat settings, CABAC           : Yes\nFormat settings, ReFrames        : 4 frames\nDuration                         : 1h 38mn\nBit rate                         : 667 Kbps\nWidth                            : 720 pixels\nHeight                           : 304 pixels\nDisplay aspect ratio             : 2.35:1\nFrame rate                       : 25.000 fps\nOriginal frame rate              : 23.976 fps\nResolution                       : 8 bits\nColorimetry                      : 4:2:0\nScan type                        : Progressive\nBits/(Pixel*Frame)               : 0.122\nStream size                      : 471 MiB (82%)\nTitle                            : BLU RAY VIDEO BY ARIHANT\n\nAudio\nID                               : 2\nFormat                           : AC-3\nFormat/Info                      : Audio Coding 3\nFormat_Settings_ModeExtension    : CM (complete main)\nCodec ID                         : A_AC3\nDuration                         : 1h 38mn\nBit rate mode                    : Constant\nBit rate                         : 128 Kbps\nChannel(s)                       : 2 channels\nChannel positions                : Front: L R\nSampling rate                    : 48.0 KHz\nVideo delay                      : 32ms\nStream size                      : 90.4 MiB (16%)\nTitle                            : HINDI AUDIO BY ARIHANT\nLanguage                         : Hindi","torrent":{"xt":"urn:btih:91acd191f642b5b0590f4d0aa7d309244f1e6245","amp;dn":"War+%5B2007%5D+BRrip+Hindi+Dubbed+MKV+%5BTeam_BDU%5D","amp;tr":["udp%3A%2F%2Ftracker.openbittorrent.com%3A80","udp%3A%2F%2Fopen.demonii.com%3A1337","udp%3A%2F%2Ftracker.coppersurfer.tk%3A6969","udp%3A%2F%2Fexodus.desync.com%3A6969"],"infoHash":"91acd191f642b5b0590f4d0aa7d309244f1e6245","infoHashBuffer":{"type":"Buffer","data":[145,172,209,145,246,66,181,176,89,15,77,10,167,211,9,36,79,30,98,69]},"announce":[],"urlList":[]}}